# xmcd
#
# Track frame offsets:
#	150
#	19548
#	39153
#	62745
#	83833
#	105223
#	128938
#	150728
#	165563
#	192893
#	221228
#
# Disc length: 3271 seconds
#
# Revision: 1
# Processed by: cddbd v1.5.1PL0 Copyright (c) Steve Scherf et al.
# Submitted via: CDex 1.50Beta5
#
DISCID=840cc50b
DTITLE=杏子 - Missing Half
DYEAR=1900
DGENRE=Rock
TTITLE0=口いっぱいの愛を
TTITLE1=胡蝶蘭
TTITLE2=放浪者〜vagabond〜
TTITLE3=雨のエレジー(album version)
TTITLE4=春の映写機
TTITLE5=シンガプーラ(album version)
TTITLE6=SUMMER of LOVE(杏子 Version)
TTITLE7=MUDDY FLOWER(album version)
TTITLE8=毒を食らわば
TTITLE9=Missing Half
TTITLE10=たんぽぽ
EXTD=
EXTT0=
EXTT1=
EXTT2=
EXTT3=
EXTT4=
EXTT5=
EXTT6=
EXTT7=
EXTT8=
EXTT9=
EXTT10=
PLAYORDER=
